0
SECTION
2
HEADER
9
$INSUNITS
70
4
9
$ACADVER
1
AC1014
9
$HANDSEED
5
FFFF
0
ENDSEC
0
SECTION
2
TABLES
0
TABLE
2
VPORT
5
8
100
AcDbSymbolTable
0
ENDTAB
0
TABLE
2
LTYPE
5
5
100
AcDbSymbolTable
0
LTYPE
5
14
100
AcDbSymbolTableRecord
100
AcDbLinetypeTableRecord
2
BYBLOCK
70
0
0
LTYPE
5
15
100
AcDbSymbolTableRecord
100
AcDbLinetypeTableRecord
2
BYLAYER
70
0
0
LTYPE
5
16
100
AcDbSymbolTableRecord
100
AcDbLinetypeTableRecord
2
DASHED
70
0
3
Dashed __ __ __ __ __ __ __ __ __ __ __ __ __ _
72
65
73
2
40
0.75
49
0.5
74
0
49
-0.25
74
0
0
ENDTAB
0
TABLE
2
LAYER
5
2
100
AcDbSymbolTable
70
2
0
LAYER
5
50
100
AcDbSymbolTableRecord
100
AcDbLayerTableRecord
2
0
70
0
62
7
6
CONTINUOUS
0
ENDTAB
0
TABLE
2
STYLE
5
3
100
AcDbSymbolTable
70
1
0
STYLE
5
11
100
AcDbSymbolTableRecord
100
AcDbTextStyleTableRecord
2
STANDARD
70
0
0
ENDTAB
0
TABLE
2
VIEW
5
6
100
AcDbSymbolTable
70
0
0
ENDTAB
0
TABLE
2
UCS
5
7
100
AcDbSymbolTable
70
0
0
ENDTAB
0
TABLE
2
APPID
5
9
100
AcDbSymbolTable
70
2
0
APPID
5
12
100
AcDbSymbolTableRecord
100
AcDbRegAppTableRecord
2
ACAD
70
0
0
ENDTAB
0
TABLE
2
DIMSTYLE
5
A
100
AcDbSymbolTable
70
1
0
ENDTAB
0
TABLE
2
BLOCK_RECORD
5
1
100
AcDbSymbolTable
70
1
0
BLOCK_RECORD
5
1F
100
AcDbSymbolTableRecord
100
AcDbBlockTableRecord
2
*MODEL_SPACE
0
BLOCK_RECORD
5
1B
100
AcDbSymbolTableRecord
100
AcDbBlockTableRecord
2
*PAPER_SPACE
0
ENDTAB
0
ENDSEC
0
SECTION
2
BLOCKS
0
BLOCK
5
20
100
AcDbEntity
100
AcDbBlockBegin
2
*MODEL_SPACE
0
ENDBLK
5
21
100
AcDbEntity
100
AcDbBlockEnd
0
BLOCK
5
1C
100
AcDbEntity
100
AcDbBlockBegin
2
*PAPER_SPACE
0
ENDBLK
5
1D
100
AcDbEntity
100
AcDbBlockEnd
0
ENDSEC
0
SECTION
2
ENTITIES
0
POINT
5
100
100
AcDbEntity
8
0
100
AcDbPoint
10
0
20
0
30
0
0
POINT
5
101
100
AcDbEntity
8
0
100
AcDbPoint
10
2
20
1.9999999999999996
30
0
0
POINT
5
102
100
AcDbEntity
8
0
100
AcDbPoint
10
-109.00000000000003
20
1.9999999999999996
30
0
0
POINT
5
103
100
AcDbEntity
8
0
100
AcDbPoint
10
2
20
-27
30
0
0
POINT
5
104
100
AcDbEntity
8
0
100
AcDbPoint
10
2
20
-38
30
0
0
POINT
5
105
100
AcDbEntity
8
0
100
AcDbPoint
10
2
20
-67
30
0
0
POINT
5
106
100
AcDbEntity
8
0
100
AcDbPoint
10
-109.00000000000003
20
-38
30
0
0
LWPOLYLINE
5
107
100
AcDbEntity
8
0
100
AcDbPolyline
90
20
70
1
43
0.0
10
0
20
0
10
-107.00000000000001
20
0
10
-107.00000000000001
20
-10.500000156462193
10
-115.00000171363352
20
-10.500000156462182
10
-115.00000171363352
20
-5.9248104581139902
42
-0.17903348908643352
10
-114.39814299849976
20
-4.2978317665859231
10
-109.74830418444533
20
1.1269786915280731
42
-0.21894362984390545
10
-107.8501628995791
20
1.9999999999999996
10
-0.49999999999999961
20
1.9999999999999991
42
-0.41421356237309614
10
1.9999999999999998
20
-0.49999999999999822
10
2.0000000000000022
20
-24.5
42
-0.41421356237309404
10
-0.49999999999998934
20
-27
10
-107.85016293940268
20
-27.000000000000007
42
-0.21894362295472711
10
-109.74830418148559
20
-26.12697874144191
10
-114.39814295571645
20
-20.702168618488635
42
-0.17903349587120421
10
-115.00000171363354
20
-19.075189877046725
10
-115.00000171363354
20
-14.500000216066827
10
-107.00000000000001
20
-14.500000216066837
10
-107.00000000000001
20
-25
10
0
20
-25
0
LWPOLYLINE
5
108
100
AcDbEntity
8
0
100
AcDbPolyline
90
12
70
1
43
0.0
10
-0.49999999999999933
20
-38
10
-107.8501628995791
20
-38
42
0.21894362984390514
10
-109.74830418444533
20
-38.873021308471927
10
-114.39814299849976
20
-44.297831766585922
42
0.17903348908643307
10
-115.00000171363352
20
-45.924810458113981
10
-115.00000171363354
20
-59.075189877046725
42
0.17903349587120446
10
-114.39814295571645
20
-60.702168618488635
10
-109.74830418148559
20
-66.126978741441903
42
0.2189436229547278
10
-107.85016293940268
20
-67
10
-0.49999999999998934
20
-67
42
0.41421356237309404
10
2.0000000000000022
20
-64.5
10
1.9999999999999998
20
-40.5
42
0.4142135623730957
0
CIRCLE
5
109
100
AcDbEntity
8
0
100
AcDbCircle
10
-112.00000166893004
20
-52.500000186264515
30
0
40
2.0000000000000009
210
0
220
0
230
1
0
LWPOLYLINE
5
110
100
AcDbEntity
8
0
100
AcDbPolyline
90
4
70
1
43
0.0
10
-120
20
-70
10
5
20
-70
10
5
20
5
10
-120
20
5
0
ENDSEC
0
SECTION
2
OBJECTS
0
DICTIONARY
5
C
100
AcDbDictionary
3
ACAD_GROUP
350
D
3
ACAD_MLINESTYLE
350
17
0
DICTIONARY
5
D
100
AcDbDictionary
0
DICTIONARY
5
1A
330
C
100
AcDbDictionary
0
DICTIONARY
5
17
100
AcDbDictionary
0
ENDSEC
0
EOF
