0
SECTION
2
HEADER
9
$INSUNITS
70
4
9
$ACADVER
1
AC1014
9
$HANDSEED
5
FFFF
0
ENDSEC
0
SECTION
2
TABLES
0
TABLE
2
VPORT
5
8
100
AcDbSymbolTable
0
ENDTAB
0
TABLE
2
LTYPE
5
5
100
AcDbSymbolTable
0
LTYPE
5
14
100
AcDbSymbolTableRecord
100
AcDbLinetypeTableRecord
2
BYBLOCK
70
0
0
LTYPE
5
15
100
AcDbSymbolTableRecord
100
AcDbLinetypeTableRecord
2
BYLAYER
70
0
0
LTYPE
5
16
100
AcDbSymbolTableRecord
100
AcDbLinetypeTableRecord
2
DASHED
70
0
3
Dashed __ __ __ __ __ __ __ __ __ __ __ __ __ _
72
65
73
2
40
0.75
49
0.5
74
0
49
-0.25
74
0
0
ENDTAB
0
TABLE
2
LAYER
5
2
100
AcDbSymbolTable
70
2
0
LAYER
5
50
100
AcDbSymbolTableRecord
100
AcDbLayerTableRecord
2
0
70
0
62
7
6
CONTINUOUS
0
ENDTAB
0
TABLE
2
STYLE
5
3
100
AcDbSymbolTable
70
1
0
STYLE
5
11
100
AcDbSymbolTableRecord
100
AcDbTextStyleTableRecord
2
STANDARD
70
0
0
ENDTAB
0
TABLE
2
VIEW
5
6
100
AcDbSymbolTable
70
0
0
ENDTAB
0
TABLE
2
UCS
5
7
100
AcDbSymbolTable
70
0
0
ENDTAB
0
TABLE
2
APPID
5
9
100
AcDbSymbolTable
70
2
0
APPID
5
12
100
AcDbSymbolTableRecord
100
AcDbRegAppTableRecord
2
ACAD
70
0
0
ENDTAB
0
TABLE
2
DIMSTYLE
5
A
100
AcDbSymbolTable
70
1
0
ENDTAB
0
TABLE
2
BLOCK_RECORD
5
1
100
AcDbSymbolTable
70
1
0
BLOCK_RECORD
5
1F
100
AcDbSymbolTableRecord
100
AcDbBlockTableRecord
2
*MODEL_SPACE
0
BLOCK_RECORD
5
1B
100
AcDbSymbolTableRecord
100
AcDbBlockTableRecord
2
*PAPER_SPACE
0
ENDTAB
0
ENDSEC
0
SECTION
2
BLOCKS
0
BLOCK
5
20
100
AcDbEntity
100
AcDbBlockBegin
2
*MODEL_SPACE
0
ENDBLK
5
21
100
AcDbEntity
100
AcDbBlockEnd
0
BLOCK
5
1C
100
AcDbEntity
100
AcDbBlockBegin
2
*PAPER_SPACE
0
ENDBLK
5
1D
100
AcDbEntity
100
AcDbBlockEnd
0
ENDSEC
0
SECTION
2
ENTITIES
0
LINE
5
100
100
AcDbEntity
8
0
100
AcDbLine
10
-200
20
180
30
0
11
-190
21
180
31
0
0
LINE
5
101
100
AcDbEntity
8
0
100
AcDbLine
10
-190
20
180
30
0
11
-186.49954844538993
21
173.93808290110894
31
0
0
LINE
5
102
100
AcDbEntity
8
0
100
AcDbLine
10
-190.86595245252477
20
178.50000265985727
30
0
11
-187.59884903967273
21
172.83765985933547
31
0
0
LINE
5
103
100
AcDbEntity
8
0
100
AcDbLine
10
-187.59754285932328
20
169.8403119618828
30
0
11
-190.86595091659117
21
164.1802368603112
31
0
0
LINE
5
104
100
AcDbEntity
8
0
100
AcDbLine
10
-203.26686949483695
20
171.33725513598807
30
0
11
-200.00022659562828
21
165.68023685198835
31
0
0
LINE
5
105
100
AcDbEntity
8
0
100
AcDbLine
10
-199.13405067671908
20
178.50000265985727
30
0
11
-203.26686949483695
21
171.33725513598807
31
0
0
LINE
5
106
100
AcDbEntity
8
0
100
AcDbLine
10
-199.13405067671908
20
178.50000265985727
30
0
11
-190.86595245252477
21
178.50000265985727
31
0
0
LINE
5
107
100
AcDbEntity
8
0
100
AcDbLine
10
-190.86595091659117
20
164.1802368603112
30
0
11
-197.40192691789053
21
164.1802368603112
31
0
0
LINE
5
108
100
AcDbEntity
8
0
100
AcDbLine
10
-200
20
180
30
0
11
-202.80143130620405
21
188.63026815987413
31
0
0
LINE
5
109
100
AcDbEntity
8
0
100
AcDbLine
10
-202.33729471165782
20
190.0566551107944
30
0
11
-194.99822202284025
21
195.39057089664024
31
0
0
LINE
5
110
100
AcDbEntity
8
0
100
AcDbLine
10
-194.99822202284025
20
195.39057089664024
30
0
11
-189.33703628958909
21
191.27341458510273
31
0
0
LINE
5
111
100
AcDbEntity
8
0
100
AcDbLine
10
-187.8377429783115
20
186.65570988966891
30
0
11
-190
21
180
31
0
0
LINE
5
112
100
AcDbEntity
8
0
100
AcDbLine
10
-189.89423189661272
20
189.82390577609405
30
0
11
-194.99822202284025
21
193.53583577669394
31
0
0
LINE
5
113
100
AcDbEntity
8
0
100
AcDbLine
10
-189.14016258695165
20
187.50143200414254
30
0
11
-191.08986272506701
21
181.5
31
0
0
LINE
5
114
100
AcDbEntity
8
0
100
AcDbLine
10
-201.32603626542985
20
188.93645304059851
30
0
11
-198.91013727493299
21
181.5
31
0
0
LINE
5
115
100
AcDbEntity
8
0
100
AcDbLine
10
-201.32603626542985
20
188.93645304059851
30
0
11
-195.00177797715975
21
193.53583577669394
31
0
0
LINE
5
116
100
AcDbEntity
8
0
100
AcDbLine
10
-198.91013727493299
20
181.5
30
0
11
-191.08986272506701
21
181.5
31
0
0
CIRCLE
5
117
100
AcDbEntity
8
0
100
AcDbCircle
10
-186.91081383248144
20
189.50891902301521
30
0
40
3.0000000000000142
210
0
220
0
230
1
0
CIRCLE
5
118
100
AcDbEntity
8
0
100
AcDbCircle
10
-205.00028777417049
20
154.02014716852909
30
0
40
3.000000000000012
210
0
220
0
230
1
0
LINE
5
119
100
AcDbEntity
8
0
100
AcDbLine
10
-202.1019612928348
20
160.53972947221064
30
0
11
-204.19734306434685
21
156.91069725336871
31
0
0
LINE
5
120
100
AcDbEntity
8
0
100
AcDbLine
10
-200.80294783906751
20
159.78968677547164
30
0
11
-202.89832961057954
21
156.16065455662974
31
0
0
LINE
5
121
100
AcDbEntity
8
0
100
AcDbLine
10
-246.16693384705897
20
178.50000265985727
30
0
11
-240.98493426393389
21
169.16944577706732
31
0
0
LWPOLYLINE
5
122
100
AcDbEntity
8
0
100
AcDbPolyline
90
6
70
1
43
0.0
10
-243.86595245252477
20
178.50000265985727
10
-239.73313363440693
20
171.33725513598807
10
-243.86595091659117
20
164.1802368603112
10
-252.1340522126527
20
164.1802368603112
10
-256.26686949483695
20
171.33725513598807
10
-252.13405067671911
20
178.50000265985727
0
LINE
5
123
100
AcDbEntity
8
0
100
AcDbLine
10
-240.83774297831152
20
186.65570988966891
30
0
11
-243
21
180
31
0
0
LWPOLYLINE
5
124
100
AcDbEntity
8
0
100
AcDbPolyline
90
6
70
1
43
0.0
10
-243
20
180
10
-237.9993549219856
20
171.3401184301556
10
-243
20
162.6802368603112
10
-253.00000312924385
20
162.6802368603112
10
-258.00064820725828
20
171.3401184301556
10
-253
20
180
0
CIRCLE
5
125
100
AcDbEntity
8
0
100
AcDbCircle
10
-239.91081383248144
20
189.50891902301521
30
0
40
3.0000000000000142
210
0
220
0
230
1
0
LINE
5
126
100
AcDbEntity
8
0
100
AcDbLine
10
-242.6657166632807
20
166.25874599814964
30
0
11
-253.33428646596317
21
166.25874599814964
31
0
0
LINE
5
127
100
AcDbEntity
8
0
100
AcDbLine
10
-247.99822202284025
20
195.39057089664024
30
0
11
-242.33703628958909
21
191.27341458510273
31
0
0
LINE
5
128
100
AcDbEntity
8
0
100
AcDbLine
10
-265.00235322029761
20
193.19736136655294
30
0
11
-255.33767488397004
21
190.05637880789027
31
0
0
LINE
5
129
100
AcDbEntity
8
0
100
AcDbLine
10
-246.28449554363351
20
192.28951033842517
30
0
11
-253.67032523561807
21
186.91808873787784
31
0
0
LINE
5
130
100
AcDbEntity
8
0
100
AcDbLine
10
-242.89423189661275
20
189.82390577609405
30
0
11
-247.99822202284025
21
193.53583577669394
31
0
0
LINE
5
131
100
AcDbEntity
8
0
100
AcDbLine
10
-254.32603626542985
20
188.93645304059851
30
0
11
-248.00177797715975
21
193.53583577669394
31
0
0
LINE
5
132
100
AcDbEntity
8
0
100
AcDbLine
10
-255.80128648518038
20
188.62982201498139
30
0
11
-266.19328114118832
21
192.00717952532347
31
0
0
LINE
5
133
100
AcDbEntity
8
0
100
AcDbLine
10
-255.33767488397004
20
190.05637880789027
30
0
11
-247.99822202284025
21
195.39057089664024
31
0
0
LWPOLYLINE
5
134
100
AcDbEntity
8
0
100
AcDbPolyline
90
3
70
1
43
0.0
10
-248.00000156462193
20
178.50000265985727
10
-254.20046085374483
20
167.75874599814961
10
-241.79954227549902
20
167.75874599814961
0
LINE
5
135
100
AcDbEntity
8
0
100
AcDbLine
10
-254.32603626542985
20
188.93645304059851
30
0
11
-251.91013727493299
21
181.5
31
0
0
LINE
5
136
100
AcDbEntity
8
0
100
AcDbLine
10
-253
20
180
30
0
11
-255.80128648518038
21
188.62982201498139
31
0
0
CIRCLE
5
137
100
AcDbEntity
8
0
100
AcDbCircle
10
-258.00028777417049
20
154.02014716852909
30
0
40
1.9999999999999996
210
0
220
0
230
1
0
LINE
5
138
100
AcDbEntity
8
0
100
AcDbLine
10
-245.00934356912921
20
191.36214277845201
30
0
11
-253.18292853357761
21
185.4178179479467
31
0
0
LINE
5
139
100
AcDbEntity
8
0
100
AcDbLine
10
-242.14016258695165
20
187.50143200414254
30
0
11
-244.08986272506701
21
181.5
31
0
0
LINE
5
140
100
AcDbEntity
8
0
100
AcDbLine
10
-265.00235322029761
20
193.19736136655294
30
0
11
-268.08721979568469
21
202.70964806387551
31
0
0
LINE
5
141
100
AcDbEntity
8
0
100
AcDbLine
10
-251.91013727493299
20
181.5
30
0
11
-244.08986272506701
21
181.5
31
0
0
CIRCLE
5
142
100
AcDbEntity
8
0
100
AcDbCircle
10
-278.19303540642647
20
205.2053841341652
30
0
40
3.0000000000000027
210
0
220
0
230
1
0
LINE
5
143
100
AcDbEntity
8
0
100
AcDbLine
10
-249.83306928218491
20
178.50000265985727
30
0
11
-255.01506886530996
21
169.16944577706732
31
0
0
LINE
5
144
100
AcDbEntity
8
0
100
AcDbLine
10
-253.43304485795932
20
163.43015812586233
30
0
11
-257.19734306434685
21
156.91069725336871
31
0
0
LINE
5
145
100
AcDbEntity
8
0
100
AcDbLine
10
-252.13396129054132
20
162.6802368603112
30
0
11
-255.89832961057954
21
156.16065455662974
31
0
0
LINE
5
146
100
AcDbEntity
8
0
100
AcDbLine
10
-268.08721979568469
20
202.70964806387551
30
0
11
-275.19871586524556
21
205.02085639830381
31
0
0
LINE
5
147
100
AcDbEntity
8
0
100
AcDbLine
10
-269.27814771657523
20
201.51946622264603
30
0
11
-275.66233991388123
21
203.59430365075934
31
0
0
LINE
5
148
100
AcDbEntity
8
0
100
AcDbLine
10
-269.27814771657523
20
201.51946622264603
30
0
11
-266.19328114118832
21
192.00717952532347
31
0
0
LINE
5
149
100
AcDbEntity
8
0
100
AcDbLine
10
-149.86595245252477
20
173.50000265985727
30
0
11
-145.73313363440693
21
166.33725513598807
31
0
0
LINE
5
150
100
AcDbEntity
8
0
100
AcDbLine
10
-144.00008031186641
20
166.33943786005855
30
0
11
-149.00025542823147
21
157.68028550768247
31
0
0
LINE
5
151
100
AcDbEntity
8
0
100
AcDbLine
10
-152.166933847059
20
173.50000265985727
30
0
11
-146.98493426393389
21
164.16944577706732
31
0
0
LINE
5
152
100
AcDbEntity
8
0
100
AcDbLine
10
-148.56725829871817
20
174.2485776894313
30
0
11
-144.00008031186641
21
166.33943786005855
31
0
0
LINE
5
153
100
AcDbEntity
8
0
100
AcDbLine
10
-145.73313363440693
20
166.33725513598807
30
0
11
-149.86595091659117
21
159.1802368603112
31
0
0
LWPOLYLINE
5
154
100
AcDbEntity
8
0
100
AcDbPolyline
90
3
70
1
43
0.0
10
-154.00000156462193
20
173.50000265985727
10
-160.2004608537448
20
162.75874599814961
10
-147.79954227549902
20
162.75874599814961
0
LINE
5
155
100
AcDbEntity
8
0
100
AcDbLine
10
-158.9999244458032
20
157.6802887080068
30
0
11
-162.50024225735342
21
163.74198039511555
31
0
0
LINE
5
156
100
AcDbEntity
8
0
100
AcDbLine
10
-149.00025542823147
20
157.68028550768247
30
0
11
-158.9999244458032
21
157.6802887080068
31
0
0
LINE
5
157
100
AcDbEntity
8
0
100
AcDbLine
10
-162.50022679860137
20
168.9379017388865
30
0
11
-159.00046460836938
21
174.99854794929266
31
0
0
LINE
5
158
100
AcDbEntity
8
0
100
AcDbLine
10
-155.83306928218491
20
173.50000265985727
30
0
11
-161.01506886530998
21
164.16944577706732
31
0
0
LINE
5
159
100
AcDbEntity
8
0
100
AcDbLine
10
-149.86595091659117
20
159.1802368603112
30
0
11
-158.1340522126527
21
159.1802368603112
31
0
0
LINE
5
160
100
AcDbEntity
8
0
100
AcDbLine
10
-148.66571666328068
20
161.25874599814964
30
0
11
-159.3342864659632
21
161.25874599814964
31
0
0
LINE
5
161
100
AcDbEntity
8
0
100
AcDbLine
10
-161.4023035524844
20
164.84004056600966
30
0
11
-158.1340522126527
21
159.1802368603112
31
0
0
LINE
5
162
100
AcDbEntity
8
0
100
AcDbLine
10
-158.13405067671908
20
173.50000265985727
30
0
11
-161.40109706908743
21
167.83775868373269
31
0
0
LWPOLYLINE
5
163
100
AcDbEntity
8
0
100
AcDbPolyline
90
12
70
1
43
0.0
10
-100.86604183870261
20
162.68023611340908
10
-109.13396129054132
20
162.6802368603112
10
-112.89832961057954
20
156.16065455662974
42
-7.8729833462075343
10
-114.19734306434684
20
156.91069725336871
10
-110.43304485795932
20
163.43015812586233
10
-115.00064820725825
20
171.3401184301556
10
-110
20
180
10
-100
20
180
10
-94.999354921985599
20
171.3401184301556
10
-99.566958135792788
20
163.4301571442486
10
-95.802661107307273
20
156.91069559164143
42
-7.8729833462075343
10
-97.101674696588333
20
156.1606531296014
0
LWPOLYLINE
5
164
100
AcDbEntity
8
0
100
AcDbPolyline
90
3
70
1
43
0.0
10
-105.00000156462193
20
178.50000265985727
10
-98.799542275499022
20
167.75874599814961
10
-111.20046085374483
20
167.75874599814961
0
LINE
5
165
100
AcDbEntity
8
0
100
AcDbLine
10
-106.83306928218488
20
178.50000265985727
30
0
11
-112.01506886530996
21
169.16944577706732
31
0
0
LWPOLYLINE
5
166
100
AcDbEntity
8
0
100
AcDbPolyline
90
6
70
1
43
0.0
10
-109.1340506767191
20
178.50000265985727
10
-113.26686949483694
20
171.33725513598807
10
-109.13405221265268
20
164.1802368603112
10
-100.86595091659117
20
164.1802368603112
10
-96.733133634406911
20
171.33725513598807
10
-100.86595245252475
20
178.50000265985727
0
CIRCLE
5
167
100
AcDbEntity
8
0
100
AcDbCircle
10
-115.0002877741705
20
154.02014716852909
30
0
40
1.9999999999999996
210
0
220
0
230
1
0
LINE
5
168
100
AcDbEntity
8
0
100
AcDbLine
10
-103.16693384705897
20
178.50000265985727
30
0
11
-97.984934263933894
21
169.16944577706732
31
0
0
LINE
5
169
100
AcDbEntity
8
0
100
AcDbLine
10
-99.665716663280676
20
166.25874599814964
30
0
11
-110.33428646596317
21
166.25874599814964
31
0
0
LWPOLYLINE
5
170
100
AcDbEntity
8
0
100
AcDbPolyline
90
6
70
1
43
0.0
10
-40
20
162.6802368603112
10
-50.000003129243851
20
162.6802368603112
10
-55.000648207258251
20
171.3401184301556
10
-50
20
180
10
-40
20
180
10
-34.999354921985599
20
171.3401184301556
0
LWPOLYLINE
5
171
100
AcDbEntity
8
0
100
AcDbPolyline
90
3
70
1
43
0.0
10
-51.200460853744829
20
167.75874599814961
10
-38.799542275499022
20
167.75874599814961
10
-45.000001564621925
20
178.50000265985727
0
LWPOLYLINE
5
172
100
AcDbEntity
8
0
100
AcDbPolyline
90
6
70
1
43
0.0
10
-49.134050676719099
20
178.50000265985727
10
-40.865952452524752
20
178.50000265985727
10
-36.733133634406911
20
171.33725513598807
10
-40.865950916591167
20
164.1802368603112
10
-49.134052212652684
20
164.1802368603112
10
-53.266869494836939
20
171.33725513598807
0
LINE
5
173
100
AcDbEntity
8
0
100
AcDbLine
10
-46.833069282184887
20
178.50000265985727
30
0
11
-52.015068865309964
21
169.16944577706732
31
0
0
LINE
5
174
100
AcDbEntity
8
0
100
AcDbLine
10
-39.665716663280683
20
166.25874599814964
30
0
11
-50.334286465963167
21
166.25874599814964
31
0
0
LINE
5
175
100
AcDbEntity
8
0
100
AcDbLine
10
-43.166933847058964
20
178.50000265985727
30
0
11
-37.984934263933887
21
169.16944577706732
31
0
0
CIRCLE
5
176
100
AcDbEntity
8
0
100
AcDbCircle
10
-200.00000312924385
20
162.6802368603112
30
0
40
2.9999999999999947
210
0
220
0
230
1
0
CIRCLE
5
177
100
AcDbEntity
8
0
100
AcDbCircle
10
-212.59997078644349
20
192.59563601624478
30
0
40
3.0000000000000071
210
0
220
0
230
1
0
LINE
5
178
100
AcDbEntity
8
0
100
AcDbLine
10
-202.33729471165782
20
190.0566551107944
30
0
11
-209.60552326156363
21
192.41319692848953
31
0
0
LINE
5
179
100
AcDbEntity
8
0
100
AcDbLine
10
-202.80143130620405
20
188.63026815987413
30
0
11
-210.0681521457453
21
190.98632114009001
31
0
0
LINE
5
180
100
AcDbEntity
8
0
100
AcDbLine
10
-189.32967476438193
20
186.91808873787784
30
0
11
-196.71550445636649
21
192.2895103384252
31
0
0
LINE
5
181
100
AcDbEntity
8
0
100
AcDbLine
10
-189.81707146642239
20
185.41781794794673
30
0
11
-197.99065643087076
21
191.36214277845201
31
0
0
LINE
5
182
100
AcDbEntity
8
0
100
AcDbLine
10
-189.94696043870641
20
185.01800270456073
30
0
11
-200.05303956129364
21
185.01800270456073
31
0
0
LINE
5
183
100
AcDbEntity
8
0
100
AcDbLine
10
-190.43426916854858
20
183.51800270456073
30
0
11
-199.56573083145142
21
183.51800270456073
31
0
0
LINE
5
184
100
AcDbEntity
8
0
100
AcDbLine
10
-187.2823211074849
20
155.96386573507814
30
0
11
-191.16550509027184
21
162.6802368603112
31
0
0
LINE
5
185
100
AcDbEntity
8
0
100
AcDbLine
10
-185.5352999944968
20
156.97393564888307
30
0
11
-189.41760921620872
21
163.68879378373197
31
0
0
CIRCLE
5
186
100
AcDbEntity
8
0
100
AcDbCircle
10
-184.9946981476466
20
154.02304601299662
30
0
40
2.9999999999999978
210
0
220
0
230
1
0
LINE
5
187
100
AcDbEntity
8
0
100
AcDbLine
10
-187.98999120541453
20
154.1910326139122
30
0
11
-192.89816875271754
21
162.6802368603112
31
0
0
LINE
5
188
100
AcDbEntity
8
0
100
AcDbLine
10
-183.64581283823208
20
156.70269308342318
30
0
11
-188.55181518678654
21
165.18813509704336
31
0
0
LINE
5
189
100
AcDbEntity
8
0
100
AcDbLine
10
-177.90409243164117
20
172.0901184301556
30
0
11
-182.09461741233002
21
172.0901184301556
31
0
0
LINE
5
190
100
AcDbEntity
8
0
100
AcDbLine
10
-182.09461741233002
20
170.5901184301556
30
0
11
-177.90409243164117
21
170.5901184301556
31
0
0
CIRCLE
5
191
100
AcDbEntity
8
0
100
AcDbCircle
10
-174.9993549219856
20
171.3401184301556
30
0
40
2.9999999999999987
210
0
220
0
230
1
0
CIRCLE
5
192
100
AcDbEntity
8
0
100
AcDbCircle
10
-184.9993549219856
20
171.3401184301556
30
0
40
2.9999999999999991
210
0
220
0
230
1
0
LINE
5
193
100
AcDbEntity
8
0
100
AcDbLine
10
-212.17541918999257
20
172.34911843015561
30
0
11
-204.41800156907715
21
172.34911843015561
31
0
0
LINE
5
194
100
AcDbEntity
8
0
100
AcDbLine
10
-204.41800156907715
20
170.33111843015561
30
0
11
-212.17541918999257
21
170.33111843015561
31
0
0
LINE
5
195
100
AcDbEntity
8
0
100
AcDbLine
10
-213.35598441182768
20
173.84911843015558
30
0
11
-203.55182627466959
21
173.84911843015558
31
0
0
LINE
5
196
100
AcDbEntity
8
0
100
AcDbLine
10
-213.35598441182768
20
168.83111843015564
30
0
11
-203.55182718129549
21
168.83111843015564
31
0
0
CIRCLE
5
197
100
AcDbEntity
8
0
100
AcDbCircle
10
-215.00064820725825
20
171.3401184301556
30
0
40
2.9999999999999929
210
0
220
0
230
1
0
LINE
5
198
100
AcDbEntity
8
0
100
AcDbLine
10
-158.13405067671908
20
173.50000265985727
30
0
11
-149.86595245252477
21
173.50000265985727
31
0
0
LINE
5
199
100
AcDbEntity
8
0
100
AcDbLine
10
-159.00046460836938
20
174.99854794929266
30
0
11
-149.86631357825792
21
174.99854794929266
31
0
0
CIRCLE
5
200
100
AcDbEntity
8
0
100
AcDbCircle
10
-164.00043463038264
20
166.33994553035217
30
0
40
3.0000000000000098
210
0
220
0
230
1
0
LINE
5
201
100
AcDbEntity
8
0
100
AcDbLine
10
-143.07954237253989
20
183.75554504085846
30
0
11
-134.05525712694538
21
184.69850523421292
31
0
0
LINE
5
202
100
AcDbEntity
8
0
100
AcDbLine
10
-134.05525712694538
20
184.69850523421292
30
0
11
-131.97021128064341
21
194.47871912854154
31
0
0
LINE
5
203
100
AcDbEntity
8
0
100
AcDbLine
10
-131.97021128064341
20
194.47871912854154
30
0
11
-140.62743283504682
21
199.48396786941083
31
0
0
LINE
5
204
100
AcDbEntity
8
0
100
AcDbLine
10
-140.62743283504682
20
199.48396786941083
30
0
11
-147.37362681209441
21
193.41706827514795
31
0
0
LINE
5
205
100
AcDbEntity
8
0
100
AcDbLine
10
-147.68638368903962
20
191.95003619099865
30
0
11
-144.37785055104951
21
184.50680958511765
31
0
0
LINE
5
206
100
AcDbEntity
8
0
100
AcDbLine
10
-148.56725829871817
20
174.2485776894313
30
0
11
-143.07954237253989
21
183.75554504085846
31
0
0
LINE
5
207
100
AcDbEntity
8
0
100
AcDbLine
10
-149.86636351199573
20
174.99846144364597
30
0
11
-144.37785055104951
21
184.50680958511765
31
0
0
LINE
5
208
100
AcDbEntity
8
0
100
AcDbLine
10
-135.29505803906792
20
186.07712331024101
30
0
11
-143.0730837292638
21
185.2643865217708
31
0
0
LINE
5
209
100
AcDbEntity
8
0
100
AcDbLine
10
-143.0730837292638
20
185.2643865217708
30
0
11
-146.24958446892671
21
192.41057905875184
31
0
0
LINE
5
210
100
AcDbEntity
8
0
100
AcDbLine
10
-146.24958446892671
20
192.41057905875184
30
0
11
-140.44563624806165
21
197.63011043097282
31
0
0
LINE
5
211
100
AcDbEntity
8
0
100
AcDbLine
10
-140.44563624806165
20
197.63011043097282
30
0
11
-133.68965548718111
21
193.60749985893926
31
0
0
LINE
5
212
100
AcDbEntity
8
0
100
AcDbLine
10
-133.68965548718111
20
193.60749985893926
30
0
11
-135.29505803906792
21
186.07712331024101
31
0
0
LINE
5
213
100
AcDbEntity
8
0
100
AcDbLine
10
-154.84577616566
20
195.01005735912261
30
0
11
-147.37362681209441
21
193.41706827514795
31
0
0
CIRCLE
5
214
100
AcDbEntity
8
0
100
AcDbCircle
10
-157.84305001926379
20
194.88219240495857
30
0
40
1.9999999999999882
210
0
220
0
230
1
0
LINE
5
215
100
AcDbEntity
8
0
100
AcDbLine
10
-155.15853304260537
20
193.54302527497336
30
0
11
-147.68638368903962
21
191.95003619099865
31
0
0
CIRCLE
5
216
100
AcDbEntity
8
0
100
AcDbCircle
10
-94.999716919733032
20
154.02014536173004
30
0
40
1.9999999999999996
210
0
220
0
230
1
0
LINE
5
217
100
AcDbEntity
8
0
100
AcDbLine
10
-112.89504127809472
20
203.84115356239636
30
0
11
-109.13066157564862
21
197.32154882509761
31
0
0
LINE
5
218
100
AcDbEntity
8
0
100
AcDbLine
10
-114.13146498192032
20
188.66156897013869
30
0
11
-109.13066157564862
21
197.32154882509761
31
0
0
LINE
5
219
100
AcDbEntity
8
0
100
AcDbLine
10
-114.19405486737573
20
203.09111110035639
30
0
11
-110.86277037371761
21
197.32159264502383
31
0
0
LINE
5
220
100
AcDbEntity
8
0
100
AcDbLine
10
-115.8634094678165
20
188.66189733236558
30
0
11
-110.86277037371761
21
197.32159264502383
31
0
0
LINE
5
221
100
AcDbEntity
8
0
100
AcDbLine
10
-115.8634094678165
20
188.66189733236558
30
0
11
-110.43312408001191
21
179.24993659171889
31
0
0
LINE
5
222
100
AcDbEntity
8
0
100
AcDbLine
10
-114.13146498192032
20
188.66156897013869
30
0
11
-109.13412248229839
21
180
31
0
0
CIRCLE
5
223
100
AcDbEntity
8
0
100
AcDbCircle
10
-114.99699905495
20
205.98166133026774
30
0
40
2.9999999999999978
210
0
220
0
230
1
0
LINE
5
224
100
AcDbEntity
8
0
100
AcDbLine
10
-37.101402172782201
20
156.16077519212598
30
0
11
-40.866062652186343
21
162.6802368603112
31
0
0
LINE
5
225
100
AcDbEntity
8
0
100
AcDbLine
10
-35.80241993730553
20
156.91087195382812
30
0
11
-39.566968673906715
21
163.43014011109133
31
0
0
LINE
5
226
100
AcDbEntity
8
0
100
AcDbLine
10
-27.904092431641175
20
170.5901184301556
30
0
11
-35.43244211587642
21
170.5901184301556
31
0
0
LINE
5
227
100
AcDbEntity
8
0
100
AcDbLine
10
-27.904092431641175
20
172.0901184301556
30
0
11
-35.43244211587642
21
172.0901184301556
31
0
0
LINE
5
228
100
AcDbEntity
8
0
100
AcDbLine
10
-69.20042753240233
20
165.57235426828305
30
0
11
-65.866795741193243
21
171.34030164232132
31
0
0
LINE
5
229
100
AcDbEntity
8
0
100
AcDbLine
10
-82.89910168536862
20
186.51994397946862
30
0
11
-79.567692186649708
21
180.75020902536284
31
0
0
LINE
5
230
100
AcDbEntity
8
0
100
AcDbLine
10
-84.19827018021779
20
185.76974939065872
30
0
11
-80.43392764577051
21
179.25020902536286
31
0
0
LWPOLYLINE
5
231
100
AcDbEntity
8
0
100
AcDbPolyline
90
2
70
1
43
0.0
10
-72.905668797180653
20
180.75020902536284
10
-79.567692186649708
20
180.75020902536284
0
LINE
5
232
100
AcDbEntity
8
0
100
AcDbLine
10
-68.422523845667683
20
175.76661842602729
30
0
11
-65.866795741193243
21
171.34030164232132
31
0
0
LINE
5
233
100
AcDbEntity
8
0
100
AcDbLine
10
-65.866795741193243
20
171.34030164232132
30
0
11
-69.197987099950907
21
177.10965879545145
31
0
0
LINE
5
234
100
AcDbEntity
8
0
100
AcDbLine
10
-62.842704377076537
20
172.08989293401453
30
0
11
-54.567690955091422
21
172.08989293401453
31
0
0
LINE
5
235
100
AcDbEntity
8
0
100
AcDbLine
10
-54.567690955091422
20
172.08989293401453
30
0
11
-64.567521648927027
21
172.08989293401453
31
0
0
LINE
5
236
100
AcDbEntity
8
0
100
AcDbLine
10
-64.567993671866361
20
170.58989293401453
30
0
11
-54.567430800712799
21
170.58989293401453
31
0
0
LINE
5
237
100
AcDbEntity
8
0
100
AcDbLine
10
-72.905668797180653
20
179.25020902536286
30
0
11
-80.43392764577051
21
179.25020902536286
31
0
0
LWPOLYLINE
5
238
100
AcDbEntity
8
0
100
AcDbPolyline
90
3
70
1
43
0.0
10
-64.134500673323217
20
171.33993521798976
10
-64.134606458901644
20
171.3401184301556
10
-64.13439478437158
20
171.3401184301556
0
LWPOLYLINE
5
239
100
AcDbEntity
8
0
100
AcDbPolyline
90
2
70
1
43
0.0
10
-64.567521648927027
20
172.08989293401453
10
-67.898973510669833
20
177.85970125749145
0
LINE
5
240
100
AcDbEntity
8
0
100
AcDbLine
10
-64.953527027711857
20
171.3401184301556
30
0
11
-65.000648207258251
21
171.3401184301556
31
0
0
LINE
5
241
100
AcDbEntity
8
0
100
AcDbLine
10
-67.901731365348624
20
164.82176232476115
30
0
11
-64.567993671866361
21
170.58989293401453
31
0
0
LINE
5
242
100
AcDbEntity
8
0
100
AcDbLine
10
-64.134606458901644
20
171.3401184301556
30
0
11
-64.134500673323217
21
171.33993521798976
31
0
0
CIRCLE
5
243
100
AcDbEntity
8
0
100
AcDbCircle
10
-70.004594497404412
20
162.68214398313091
30
0
40
3.0000000000000071
210
0
220
0
230
1
0
CIRCLE
5
244
100
AcDbEntity
8
0
100
AcDbCircle
10
-85.00121436779196
20
188.6602996205701
30
0
40
2.9999999999999938
210
0
220
0
230
1
0
CIRCLE
5
245
100
AcDbEntity
8
0
100
AcDbCircle
10
-70.000931287525091
20
180.00020902536284
30
0
40
3.0000000000000022
210
0
220
0
230
1
0
CIRCLE
5
246
100
AcDbEntity
8
0
100
AcDbCircle
10
-24.999354921985599
20
171.3401184301556
30
0
40
2.0000000000000013
210
0
220
0
230
1
0
CIRCLE
5
247
100
AcDbEntity
8
0
100
AcDbCircle
10
-34.999354921985606
20
154.02035529046682
30
0
40
2.0000000000000053
210
0
220
0
230
1
0
ARC
5
248
100
AcDbEntity
8
0
100
AcDbCircle
10
-258.00028777417049
20
154.02014716852909
30
0
40
3.0000000000000178
210
0
220
-0
230
1
100
AcDbArc
50
-285.52437102761422
51
45.520604600526326
0
LINE
5
249
100
AcDbEntity
8
0
100
AcDbLine
10
-205.00064820725825
20
171.3401184301556
30
0
11
-204.41800156907715
21
172.34911843015561
31
0
0
LINE
5
250
100
AcDbEntity
8
0
100
AcDbLine
10
-203.55182627466959
20
173.84911843015558
30
0
11
-200
21
180
31
0
0
LINE
5
251
100
AcDbEntity
8
0
100
AcDbLine
10
-204.41800156907715
20
170.33111843015561
30
0
11
-205.00064820725825
21
171.3401184301556
31
0
0
LINE
5
252
100
AcDbEntity
8
0
100
AcDbLine
10
-201.50019665264819
20
165.27820133126454
30
0
11
-203.55182718129549
21
168.83111843015564
31
0
0
LINE
5
253
100
AcDbEntity
8
0
100
AcDbLine
10
-190
20
162.6802368603112
30
0
11
-191.16550509027184
21
162.6802368603112
31
0
0
LINE
5
254
100
AcDbEntity
8
0
100
AcDbLine
10
-192.89816875271754
20
162.6802368603112
30
0
11
-197.00000312924385
21
162.6802368603112
31
0
0
LINE
5
255
100
AcDbEntity
8
0
100
AcDbLine
10
-186.49954844538993
20
168.74215395920228
30
0
11
-188.55181518678654
21
165.18813509704336
31
0
0
LINE
5
256
100
AcDbEntity
8
0
100
AcDbLine
10
-189.41760921620872
20
163.68879378373197
30
0
11
-190
21
162.6802368603112
31
0
0
ARC
5
257
100
AcDbEntity
8
0
100
AcDbCircle
10
-157.84305001926379
20
194.88219240495857
30
0
40
3.0000000000000298
210
0
220
-0
230
1
100
AcDbArc
50
2.4427807161182504
51
333.48775634425925
0
ARC
5
258
100
AcDbEntity
8
0
100
AcDbCircle
10
-24.999354921985599
20
171.3401184301556
30
0
40
3.000000000000012
210
0
220
0
230
1
100
AcDbArc
50
-165.52248781407013
51
165.52248781407013
0
ARC
5
259
100
AcDbEntity
8
0
100
AcDbCircle
10
-34.999354921985606
20
154.02035529046682
30
0
40
3.0000000000000049
210
0
220
0
230
1
100
AcDbArc
50
-225.51821992050466
51
105.52675570763566
0
ENDSEC
0
SECTION
2
OBJECTS
0
DICTIONARY
5
C
100
AcDbDictionary
3
ACAD_GROUP
350
D
3
ACAD_MLINESTYLE
350
17
0
DICTIONARY
5
D
100
AcDbDictionary
0
DICTIONARY
5
1A
330
C
100
AcDbDictionary
0
DICTIONARY
5
17
100
AcDbDictionary
0
ENDSEC
0
EOF
