0
SECTION
2
HEADER
9
$INSUNITS
70
4
9
$ACADVER
1
AC1014
9
$HANDSEED
5
FFFF
0
ENDSEC
0
SECTION
2
TABLES
0
TABLE
2
VPORT
5
8
100
AcDbSymbolTable
0
ENDTAB
0
TABLE
2
LTYPE
5
5
100
AcDbSymbolTable
0
LTYPE
5
14
100
AcDbSymbolTableRecord
100
AcDbLinetypeTableRecord
2
BYBLOCK
70
0
0
LTYPE
5
15
100
AcDbSymbolTableRecord
100
AcDbLinetypeTableRecord
2
BYLAYER
70
0
0
LTYPE
5
16
100
AcDbSymbolTableRecord
100
AcDbLinetypeTableRecord
2
DASHED
70
0
3
Dashed __ __ __ __ __ __ __ __ __ __ __ __ __ _
72
65
73
2
40
0.75
49
0.5
74
0
49
-0.25
74
0
0
ENDTAB
0
TABLE
2
LAYER
5
2
100
AcDbSymbolTable
70
2
0
LAYER
5
50
100
AcDbSymbolTableRecord
100
AcDbLayerTableRecord
2
0
70
0
62
7
6
CONTINUOUS
0
ENDTAB
0
TABLE
2
STYLE
5
3
100
AcDbSymbolTable
70
1
0
STYLE
5
11
100
AcDbSymbolTableRecord
100
AcDbTextStyleTableRecord
2
STANDARD
70
0
0
ENDTAB
0
TABLE
2
VIEW
5
6
100
AcDbSymbolTable
70
0
0
ENDTAB
0
TABLE
2
UCS
5
7
100
AcDbSymbolTable
70
0
0
ENDTAB
0
TABLE
2
APPID
5
9
100
AcDbSymbolTable
70
2
0
APPID
5
12
100
AcDbSymbolTableRecord
100
AcDbRegAppTableRecord
2
ACAD
70
0
0
ENDTAB
0
TABLE
2
DIMSTYLE
5
A
100
AcDbSymbolTable
70
1
0
ENDTAB
0
TABLE
2
BLOCK_RECORD
5
1
100
AcDbSymbolTable
70
1
0
BLOCK_RECORD
5
1F
100
AcDbSymbolTableRecord
100
AcDbBlockTableRecord
2
*MODEL_SPACE
0
BLOCK_RECORD
5
1B
100
AcDbSymbolTableRecord
100
AcDbBlockTableRecord
2
*PAPER_SPACE
0
ENDTAB
0
ENDSEC
0
SECTION
2
BLOCKS
0
BLOCK
5
20
100
AcDbEntity
100
AcDbBlockBegin
2
*MODEL_SPACE
0
ENDBLK
5
21
100
AcDbEntity
100
AcDbBlockEnd
0
BLOCK
5
1C
100
AcDbEntity
100
AcDbBlockBegin
2
*PAPER_SPACE
0
ENDBLK
5
1D
100
AcDbEntity
100
AcDbBlockEnd
0
ENDSEC
0
SECTION
2
ENTITIES
0
LWPOLYLINE
5
100
100
AcDbEntity
8
0
100
AcDbPolyline
90
22
70
1
43
0.0
10
-54.142139533475373
20
53.607666532166753
10
-54.142139533475373
20
56.107666532166753
10
-129.14213886292316
20
56.107666532166725
10
-129.14213953347547
20
58.896322004986111
10
-85.50276653591402
20
60.574759427969227
10
-89.887585117807646
20
88.579123242359941
10
-84.976721505697668
20
89.348047905753276
10
-78.1978534024975
20
60.855717625408332
10
-39.142139533475373
20
62.357860466524599
10
-9.142139533475369
20
97.357860466524613
10
-9.1421395334753477
20
12.357860466524633
10
-39.142139533475365
20
47.357860466524613
10
-63.767200448853202
20
48.30497819403913
10
-70.653031320629168
20
19.367881950834402
10
-74.964311633894482
20
20.018899107650682
10
-70.653031320629168
20
48.569817842953526
10
-94.943768057412825
20
49.504076948214447
10
-103.72378381952743
20
24.15684042308542
10
-107.03515559448664
20
24.575216387657484
10
-103.84227178827429
20
49.846327091709114
10
-129.14213953347542
20
50.819398928063045
10
-129.14213886292316
20
53.607666532166725
0
LWPOLYLINE
5
101
100
AcDbEntity
8
0
100
AcDbPolyline
90
34
70
1
43
0.0
10
-199.14196768977192
20
71.358165793858305
10
-199.1419562841171
20
68.358165749198164
10
-279.14179718717287
20
68.357861599012807
10
-279.14179584606836
20
27.357860988065219
10
-249.14179584606842
20
62.357860466524578
10
-233.29951270002127
20
62.967179180369158
10
-223.6061205216987
20
29.543369508495473
10
-218.56317876149541
20
30.457392133646664
10
-224.51673493069057
20
63.304978398137038
10
-199.77565627955357
20
64.256558551317212
10
-191.94694914080841
20
35.460983007729084
10
-187.9171299179491
20
35.971940034856161
10
-191.54359598450412
20
64.573176323202077
10
-162.47707416276234
20
65.691119711101919
10
-153.49906162050129
20
43.942199308514056
10
-150.35195358553591
20
44.645190025811551
10
-155.11636355955403
20
65.974224026078645
10
-119.14179480298714
20
67.357861584111717
10
-119.14179584606842
20
72.357860466524627
10
-139.03799414636612
20
73.123098862689929
10
-135.86332348180323
20
88.813069323104344
10
-139.64936121946775
20
89.5791270394663
10
-144.67013540578927
20
73.339719680360076
10
-173.40812731575704
20
74.445027061512604
10
-166.87829840755188
20
100.68814795803263
10
-170.87872316172391
20
101.68353601831598
10
-179.78159884329665
20
74.690160581802587
10
-212.55438005775238
20
75.950652166973981
10
-208.79504989713109
20
107.97087722211828
10
-213.01798129656117
20
108.46666990779653
10
-221.43831203087544
20
76.292341858247937
10
-249.14179584606842
20
77.357860466524585
10
-279.14179584606836
20
112.35786046652453
10
-279.14179718717287
20
71.357861643716291
0
ENDSEC
0
SECTION
2
OBJECTS
0
DICTIONARY
5
C
100
AcDbDictionary
3
ACAD_GROUP
350
D
3
ACAD_MLINESTYLE
350
17
0
DICTIONARY
5
D
100
AcDbDictionary
0
DICTIONARY
5
1A
330
C
100
AcDbDictionary
0
DICTIONARY
5
17
100
AcDbDictionary
0
ENDSEC
0
EOF
