0
SECTION
2
HEADER
9
$INSUNITS
70
4
9
$ACADVER
1
AC1014
9
$HANDSEED
5
FFFF
0
ENDSEC
0
SECTION
2
TABLES
0
TABLE
2
VPORT
5
8
100
AcDbSymbolTable
0
ENDTAB
0
TABLE
2
LTYPE
5
5
100
AcDbSymbolTable
0
LTYPE
5
14
100
AcDbSymbolTableRecord
100
AcDbLinetypeTableRecord
2
BYBLOCK
70
0
0
LTYPE
5
15
100
AcDbSymbolTableRecord
100
AcDbLinetypeTableRecord
2
BYLAYER
70
0
0
LTYPE
5
16
100
AcDbSymbolTableRecord
100
AcDbLinetypeTableRecord
2
DASHED
70
0
3
Dashed __ __ __ __ __ __ __ __ __ __ __ __ __ _
72
65
73
2
40
0.75
49
0.5
74
0
49
-0.25
74
0
0
ENDTAB
0
TABLE
2
LAYER
5
2
100
AcDbSymbolTable
70
2
0
LAYER
5
50
100
AcDbSymbolTableRecord
100
AcDbLayerTableRecord
2
0
70
0
62
7
6
CONTINUOUS
0
ENDTAB
0
TABLE
2
STYLE
5
3
100
AcDbSymbolTable
70
1
0
STYLE
5
11
100
AcDbSymbolTableRecord
100
AcDbTextStyleTableRecord
2
STANDARD
70
0
0
ENDTAB
0
TABLE
2
VIEW
5
6
100
AcDbSymbolTable
70
0
0
ENDTAB
0
TABLE
2
UCS
5
7
100
AcDbSymbolTable
70
0
0
ENDTAB
0
TABLE
2
APPID
5
9
100
AcDbSymbolTable
70
2
0
APPID
5
12
100
AcDbSymbolTableRecord
100
AcDbRegAppTableRecord
2
ACAD
70
0
0
ENDTAB
0
TABLE
2
DIMSTYLE
5
A
100
AcDbSymbolTable
70
1
0
ENDTAB
0
TABLE
2
BLOCK_RECORD
5
1
100
AcDbSymbolTable
70
1
0
BLOCK_RECORD
5
1F
100
AcDbSymbolTableRecord
100
AcDbBlockTableRecord
2
*MODEL_SPACE
0
BLOCK_RECORD
5
1B
100
AcDbSymbolTableRecord
100
AcDbBlockTableRecord
2
*PAPER_SPACE
0
ENDTAB
0
ENDSEC
0
SECTION
2
BLOCKS
0
BLOCK
5
20
100
AcDbEntity
100
AcDbBlockBegin
2
*MODEL_SPACE
0
ENDBLK
5
21
100
AcDbEntity
100
AcDbBlockEnd
0
BLOCK
5
1C
100
AcDbEntity
100
AcDbBlockBegin
2
*PAPER_SPACE
0
ENDBLK
5
1D
100
AcDbEntity
100
AcDbBlockEnd
0
ENDSEC
0
SECTION
2
ENTITIES
0
LINE
5
100
100
AcDbEntity
8
0
100
AcDbLine
10
-108.99999756366014
20
-37.999999150633812
30
0
11
-108.99999756366014
21
-67.0000009983778
31
0
0
LWPOLYLINE
5
101
100
AcDbEntity
8
0
100
AcDbPolyline
90
44
70
1
43
0.0
10
-101.00000151991844
20
-40.000000581145287
10
-105.00000157952309
20
-40.000000581145287
10
-105.00000157952309
20
-45.000000655651093
10
-105.99999912534
20
-45.000000655650389
10
-106.00000073784619
20
-44.000000640750692
10
-103.00000154972076
20
-44.000000640749931
10
-103.00000154972076
20
-41
10
-102.0000015348196
20
-41
10
-102.0000015348196
20
-42.000000610947609
10
-107.00000160932541
20
-42.000000610947609
10
-107.00000160932541
20
-46.000000670552254
10
-107.00000159442426
20
-59.000000506639488
10
-107.00000159442426
20
-63.000000566244132
10
-102.00000151991844
20
-63.000000566244132
10
-102.000001519919
20
-63.99999830706814
10
-103.00000153481905
20
-63.999999894827866
10
-103.00000153481962
20
-61.00000053644181
10
-106.00000217556955
20
-61.00000053644181
10
-106.00000217556955
20
-60.000000521540649
10
-105.00000156462194
20
-60.000000521540649
10
-105.00000156482814
20
-64.998960397737818
10
-101.00000150106268
20
-64.998998099570088
10
-3.0000026787994969
20
-64.995223448445159
10
0.99999719250246255
20
-64.996481163100313
10
0.99999719538288234
20
-60.00000038743061
10
1.9999949085159519
20
-60.00000038743061
10
1.9999964907323724
20
-61.000000402330976
10
-1.0000028014183182
20
-61.000000402331374
10
-1.0000028014183182
20
-64.000001043081312
10
-2.0000028163194794
20
-64.000001043081312
10
-2.0000028163194794
20
-63.000000432133696
10
2.9999972581863266
20
-63.000000432133696
10
2.9999972581863266
20
-59.000000372529051
10
2.9999972432851796
20
-46.00000053644181
10
2.9999972432851796
20
-42.000000476837165
10
-2.0000028312206442
20
-42.000000476837165
10
-2.0000028312200557
20
-41.000002832472603
10
-1.0000028163205232
20
-41.000001218645195
10
-1.0000028163194652
20
-44.000000506639488
10
1.9999978244304661
20
-44.000000506639488
10
1.9999978244304661
20
-45.000000521540649
10
0.99999721348285719
20
-45.000000521540649
10
0.99999721348285719
20
-40.000000447034843
10
-3.0000028461217987
20
-40.000000447034843
0
LWPOLYLINE
5
102
100
AcDbEntity
8
0
100
AcDbPolyline
90
28
70
1
43
0.0
10
-101.00000151991844
20
-41.000000530268856
10
-101.00000151991844
20
-43.00000062584877
10
-106.0000007232602
20
-43.00000062584877
10
-106.00000069408823
20
-41
10
-104.00000156462193
20
-41
10
-104.00000156462193
20
-46.000000670552254
10
-106.00000076701816
20
-46.000000670552325
10
-106.00000248450803
20
-59.000000506639438
10
-104.00000154972078
20
-59.000000506639488
10
-104.00000154972078
20
-63.999999903513931
10
-106.00000217556955
20
-63.999999920886069
10
-106.00000217556955
20
-62.000000551342971
10
-101.00000150501728
20
-62.000000551342971
10
-101.00000150501728
20
-63.999999877455728
10
-3.0000028312206406
20
-64.000000479574382
10
-3.0000028312206406
20
-62.000000417232535
10
1.9999965043549883
20
-62.000000417232535
10
1.9999965316002282
20
-64.000001043081312
10
-2.7865171570162772e-06
20
-64.000001043081312
10
-2.7865171570162772e-06
20
-59.000000372529051
10
1.9999964634871403
20
-59.00000037252903
10
1.9999978396795326
20
-46.000000536441839
10
-2.8014183039992702e-06
20
-46.00000053644181
10
-2.8014183039992702e-06
20
-41.000001226549927
10
1.9999978244304661
20
-41.000001242359374
10
1.9999978244304661
20
-43.000000491738327
10
-3.0000028461218053
20
-43.000000491738327
10
-3.000002846121812
20
-41.000001202835747
0
LINE
5
103
100
AcDbEntity
8
0
100
AcDbLine
10
-106.0000007232602
20
-43.00000062584877
30
0
11
-106.00000078465993
21
-40.000000581145287
31
0
0
LINE
5
104
100
AcDbEntity
8
0
100
AcDbLine
10
-106.00000078465993
20
-40.000000581145287
30
0
11
-107.00000160932541
21
-40.000000581145287
31
0
0
LINE
5
105
100
AcDbEntity
8
0
100
AcDbLine
10
-107.00000160932541
20
-40.000000581145287
30
0
11
-107.00000160932541
21
-41
31
0
0
LINE
5
106
100
AcDbEntity
8
0
100
AcDbLine
10
-107.00000160932541
20
-41
30
0
11
-104.00000156462193
21
-41
31
0
0
LINE
5
107
100
AcDbEntity
8
0
100
AcDbLine
10
-107.00000159442426
20
-63.999999884720125
30
0
11
-107.00000159442426
21
-65.000000596046462
31
0
0
LINE
5
108
100
AcDbEntity
8
0
100
AcDbLine
10
-107.00000159442426
20
-65.000000596046462
30
0
11
-106.00000217556955
21
-65.000000596046462
31
0
0
LINE
5
109
100
AcDbEntity
8
0
100
AcDbLine
10
-106.00000217556955
20
-65.000000596046462
30
0
11
-106.00000217556955
21
-62.000000551342971
31
0
0
LINE
5
110
100
AcDbEntity
8
0
100
AcDbLine
10
-104.00000154972078
20
-63.999999903513931
30
0
11
-107.00000159442426
21
-63.999999884720125
31
0
0
LINE
5
111
100
AcDbEntity
8
0
100
AcDbLine
10
2.9999972432851796
20
-41.000001109913882
30
0
11
2.9999972432851796
21
-40.000000447034843
31
0
0
LINE
5
112
100
AcDbEntity
8
0
100
AcDbLine
10
2.9999972432851796
20
-40.000000447034843
30
0
11
1.9999978244304661
21
-40.000000447034843
31
0
0
LINE
5
113
100
AcDbEntity
8
0
100
AcDbLine
10
1.9999978244304661
20
-40.000000447034843
30
0
11
1.9999978244304661
21
-43.000000491738327
31
0
0
LINE
5
114
100
AcDbEntity
8
0
100
AcDbLine
10
-2.8014183039992702e-06
20
-41.000001226549927
30
0
11
2.9999972432851796
21
-41.000001109913882
31
0
0
LINE
5
115
100
AcDbEntity
8
0
100
AcDbLine
10
1.9999965043549883
20
-62.000000417232535
30
0
11
1.9999964712685623
21
-65.000000461936025
31
0
0
LINE
5
116
100
AcDbEntity
8
0
100
AcDbLine
10
2.9999972581863266
20
-65.000000461936025
30
0
11
2.9999972581863266
21
-64.000001043081312
31
0
0
LINE
5
117
100
AcDbEntity
8
0
100
AcDbLine
10
1.9999964712685623
20
-65.000000461936025
30
0
11
2.9999972581863266
21
-65.000000461936025
31
0
0
LINE
5
118
100
AcDbEntity
8
0
100
AcDbLine
10
2.9999972581863266
20
-64.000001043081312
30
0
11
-2.7865171570162772e-06
21
-64.000001043081312
31
0
0
LWPOLYLINE
5
119
100
AcDbEntity
8
0
100
AcDbPolyline
90
4
70
1
43
0.0
10
10
20
-70
10
-120.00000178813934
20
-70
10
-120.00000178813934
20
70.000001043081284
10
10
20
70.000001043081284
0
ENDSEC
0
SECTION
2
OBJECTS
0
DICTIONARY
5
C
100
AcDbDictionary
3
ACAD_GROUP
350
D
3
ACAD_MLINESTYLE
350
17
0
DICTIONARY
5
D
100
AcDbDictionary
0
DICTIONARY
5
1A
330
C
100
AcDbDictionary
0
DICTIONARY
5
17
100
AcDbDictionary
0
ENDSEC
0
EOF
