0
SECTION
2
HEADER
9
$INSUNITS
70
4
9
$ACADVER
1
AC1014
9
$HANDSEED
5
FFFF
0
ENDSEC
0
SECTION
2
TABLES
0
TABLE
2
VPORT
5
8
100
AcDbSymbolTable
0
ENDTAB
0
TABLE
2
LTYPE
5
5
100
AcDbSymbolTable
0
LTYPE
5
14
100
AcDbSymbolTableRecord
100
AcDbLinetypeTableRecord
2
BYBLOCK
70
0
0
LTYPE
5
15
100
AcDbSymbolTableRecord
100
AcDbLinetypeTableRecord
2
BYLAYER
70
0
0
LTYPE
5
16
100
AcDbSymbolTableRecord
100
AcDbLinetypeTableRecord
2
DASHED
70
0
3
Dashed __ __ __ __ __ __ __ __ __ __ __ __ __ _
72
65
73
2
40
0.75
49
0.5
74
0
49
-0.25
74
0
0
ENDTAB
0
TABLE
2
LAYER
5
2
100
AcDbSymbolTable
70
2
0
LAYER
5
50
100
AcDbSymbolTableRecord
100
AcDbLayerTableRecord
2
0
70
0
62
7
6
CONTINUOUS
0
ENDTAB
0
TABLE
2
STYLE
5
3
100
AcDbSymbolTable
70
1
0
STYLE
5
11
100
AcDbSymbolTableRecord
100
AcDbTextStyleTableRecord
2
STANDARD
70
0
0
ENDTAB
0
TABLE
2
VIEW
5
6
100
AcDbSymbolTable
70
0
0
ENDTAB
0
TABLE
2
UCS
5
7
100
AcDbSymbolTable
70
0
0
ENDTAB
0
TABLE
2
APPID
5
9
100
AcDbSymbolTable
70
2
0
APPID
5
12
100
AcDbSymbolTableRecord
100
AcDbRegAppTableRecord
2
ACAD
70
0
0
ENDTAB
0
TABLE
2
DIMSTYLE
5
A
100
AcDbSymbolTable
70
1
0
ENDTAB
0
TABLE
2
BLOCK_RECORD
5
1
100
AcDbSymbolTable
70
1
0
BLOCK_RECORD
5
1F
100
AcDbSymbolTableRecord
100
AcDbBlockTableRecord
2
*MODEL_SPACE
0
BLOCK_RECORD
5
1B
100
AcDbSymbolTableRecord
100
AcDbBlockTableRecord
2
*PAPER_SPACE
0
ENDTAB
0
ENDSEC
0
SECTION
2
BLOCKS
0
BLOCK
5
20
100
AcDbEntity
100
AcDbBlockBegin
2
*MODEL_SPACE
0
ENDBLK
5
21
100
AcDbEntity
100
AcDbBlockEnd
0
BLOCK
5
1C
100
AcDbEntity
100
AcDbBlockBegin
2
*PAPER_SPACE
0
ENDBLK
5
1D
100
AcDbEntity
100
AcDbBlockEnd
0
ENDSEC
0
SECTION
2
ENTITIES
0
POINT
5
100
100
AcDbEntity
8
0
100
AcDbPoint
10
2.1168862729008602
20
-3.0000000000000004
30
0
0
POINT
5
101
100
AcDbEntity
8
0
100
AcDbPoint
10
-108.88311372709916
20
-3.0000000000000004
30
0
0
POINT
5
102
100
AcDbEntity
8
0
100
AcDbPoint
10
2.1168862729008602
20
-32
30
0
0
POINT
5
103
100
AcDbEntity
8
0
100
AcDbPoint
10
-109.00000000000003
20
66
30
0
0
POINT
5
104
100
AcDbEntity
8
0
100
AcDbPoint
10
2.1168862729008602
20
32
30
0
0
POINT
5
105
100
AcDbEntity
8
0
100
AcDbPoint
10
2.1168862729008602
20
2.9999999999999982
30
0
0
POINT
5
106
100
AcDbEntity
8
0
100
AcDbPoint
10
-108.88311372709916
20
32
30
0
0
POINT
5
107
100
AcDbEntity
8
0
100
AcDbPoint
10
-109.00000000000003
20
-38
30
0
0
LWPOLYLINE
5
108
100
AcDbEntity
8
0
100
AcDbPolyline
90
22
70
1
43
0.0
10
-0.38311372709913916
20
-3.0000000000000004
10
-107.73327662667825
20
-3.0000000000000004
42
0.21894362984390545
10
-109.63141791154447
20
-3.8730213084719276
10
-114.28125672559889
20
-9.297831766585924
42
0.17903348908643349
10
-114.88311544073267
20
-10.924810458113988
10
-114.88311544073267
20
-15.500000156462182
10
-106.88311372709916
20
-15.500000156462193
10
-106.88311372709916
20
-5
10
3.1168863176043438
20
-5
10
3.1168863176043438
20
-30.00000037252903
10
-106.88311372709916
20
-30
10
-106.88311372709916
20
-19.500000216066837
10
-114.88311544073268
20
-19.500000216066827
10
-114.88311544073268
20
-24.075189877046725
42
0.17903349587120454
10
-114.2812566828156
20
-25.702168618488635
10
-109.63141790858474
20
-31.12697874144191
42
0.21894362295472714
10
-107.73327666650182
20
-32
10
-0.38311372709912916
20
-32
10
2.6168861645287822
20
-32.000000219453455
42
0.41421358379857232
10
5.1168863474066661
20
-29.500000219453462
10
5.1168863474066661
20
-5.4999999837441882
42
0.41421356396016762
10
2.6168863338601556
20
-2.9999999837441873
0
LINE
5
109
100
AcDbEntity
8
0
100
AcDbLine
10
-0.49999999999999933
20
66
30
0
11
-107.8501628995791
21
66
31
0
0
ARC
5
110
100
AcDbEntity
8
0
100
AcDbCircle
10
-112.50000171363354
20
58.075189541886012
30
0
40
2.4999999999999991
210
0
220
0
230
1
100
AcDbArc
50
139.39869757058989
51
180
0
ARC
5
111
100
AcDbEntity
8
0
100
AcDbCircle
10
-107.85016293940267
20
39.500000000000014
30
0
40
2.5000000000000124
210
0
220
0
230
1
100
AcDbArc
50
220.60130393606948
51
269.99999999999972
0
LINE
5
112
100
AcDbEntity
8
0
100
AcDbLine
10
-115.00000171363352
20
58.075189541886019
30
0
11
-115.00000171363354
21
44.924810122953282
31
0
0
LINE
5
113
100
AcDbEntity
8
0
100
AcDbLine
10
-109.74830418444533
20
65.12697869152808
30
0
11
-114.39814299849976
21
59.702168233414085
31
0
0
LINE
5
114
100
AcDbEntity
8
0
100
AcDbLine
10
-107.85016293940268
20
37
30
0
11
-0.49999999999998934
21
37
31
0
0
ARC
5
115
100
AcDbEntity
8
0
100
AcDbCircle
10
-107.8501628995791
20
63.5
30
0
40
2.5000000000000089
210
0
220
-0
230
1
100
AcDbArc
50
90
51
139.39869757058977
0
ARC
5
116
100
AcDbEntity
8
0
100
AcDbCircle
10
-112.50000171363368
20
44.924810122953232
30
0
40
2.4999999999998579
210
0
220
0
230
1
100
AcDbArc
50
180
51
220.60130393607096
0
LINE
5
117
100
AcDbEntity
8
0
100
AcDbLine
10
-114.39814295571645
20
43.297831381511365
30
0
11
-109.74830418148559
21
37.873021258558097
31
0
0
CIRCLE
5
118
100
AcDbEntity
8
0
100
AcDbCircle
10
-112.00000166893004
20
51.499999813735485
30
0
40
2.0000000000000009
210
0
220
0
230
1
0
LINE
5
119
100
AcDbEntity
8
0
100
AcDbLine
10
-0.49999999999999933
20
66
30
0
11
2.500000074505806
21
66
31
0
0
LINE
5
120
100
AcDbEntity
8
0
100
AcDbLine
10
5.0000000745058077
20
63.500000000000007
30
0
11
5.000000074505806
21
39.4999990016222
31
0
0
LINE
5
121
100
AcDbEntity
8
0
100
AcDbLine
10
2.5000000745058064
20
36.9999990016222
30
0
11
-3.0000000447034836
21
36.9999990016222
31
0
0
ARC
5
122
100
AcDbEntity
8
0
100
AcDbCircle
10
2.5000000745058082
20
63.500000000000007
30
0
40
2.5
210
0
220
-0
230
1
100
AcDbArc
50
0
51
90.000000000000057
0
ARC
5
123
100
AcDbEntity
8
0
100
AcDbCircle
10
2.5000000745058006
20
39.499999001622214
30
0
40
2.5000000000000089
210
-0
220
0
230
1
100
AcDbArc
50
270.00000000000011
51
360
0
LWPOLYLINE
5
124
100
AcDbEntity
8
0
100
AcDbPolyline
90
22
70
1
43
0.0
10
-107.73327662667825
20
32
42
0.21894362984390514
10
-109.63141791154447
20
31.126978691528073
10
-114.28125672559889
20
25.702168233414078
42
0.17903348908643357
10
-114.88311544073267
20
24.075189541886012
10
-114.88311544073267
20
19.499999843537815
10
-106.88311372709916
20
19.499999843537807
10
-106.88311372709916
20
30
10
3.1168863176043438
20
30
10
3.1168863176043438
20
4.9999996274709702
10
-106.88311372709916
20
5
10
-106.88311372709916
20
15.499999783933163
10
-114.88311544073268
20
15.499999783933172
10
-114.88311544073268
20
10.924810122953275
42
0.17903349587120426
10
-114.2812566828156
20
9.2978313815113633
10
-109.63141790858474
20
3.8730212585580892
42
0.21894362295472714
10
-107.73327666650182
20
2.9999999999999982
10
-0.38311372709912916
20
2.9999999999999982
10
2.6168861645287822
20
2.9999997805465473
42
0.41421358379857232
10
5.1168863474066661
20
5.4999997805465384
10
5.1168863474066661
20
29.500000016255811
42
0.41421356396016745
10
2.6168863338601556
20
32.000000016255811
10
-0.38311372709913916
20
32
0
LWPOLYLINE
5
125
100
AcDbEntity
8
0
100
AcDbPolyline
90
4
70
1
43
0.0
10
3.0000000447034836
20
39.000000581145287
10
3.0000000447034836
20
64.000000953674316
10
-107.00000159442425
20
64.000000953674316
10
-107.00000159442425
20
39.000000581145287
0
LINE
5
126
100
AcDbEntity
8
0
100
AcDbLine
10
-0.49999999999999933
20
-38
30
0
11
2.500000074505806
21
-38
31
0
0
LINE
5
127
100
AcDbEntity
8
0
100
AcDbLine
10
5.0000000745058077
20
-40.5
30
0
11
5.000000074505806
21
-64.5000009983778
31
0
0
LINE
5
128
100
AcDbEntity
8
0
100
AcDbLine
10
2.5000000745058064
20
-67.0000009983778
30
0
11
-3.0000000447034836
21
-67.0000009983778
31
0
0
ARC
5
129
100
AcDbEntity
8
0
100
AcDbCircle
10
2.5000000745058006
20
-64.500000998377786
30
0
40
2.5000000000000089
210
-0
220
0
230
1
100
AcDbArc
50
270.00000000000011
51
360
0
ARC
5
130
100
AcDbEntity
8
0
100
AcDbCircle
10
2.5000000745058082
20
-40.5
30
0
40
2.5
210
0
220
-0
230
1
100
AcDbArc
50
0
51
90.000000000000057
0
LINE
5
131
100
AcDbEntity
8
0
100
AcDbLine
10
-115.00000171363352
20
-45.924810458113981
30
0
11
-115.00000171363354
21
-59.075189877046725
31
0
0
LINE
5
132
100
AcDbEntity
8
0
100
AcDbLine
10
-109.74830418444533
20
-38.873021308471927
30
0
11
-114.39814299849976
21
-44.297831766585922
31
0
0
LINE
5
133
100
AcDbEntity
8
0
100
AcDbLine
10
-114.39814295571645
20
-60.702168618488635
30
0
11
-109.74830418148559
21
-66.126978741441903
31
0
0
LINE
5
134
100
AcDbEntity
8
0
100
AcDbLine
10
-0.49999999999999933
20
-38
30
0
11
-107.8501628995791
21
-38
31
0
0
ARC
5
135
100
AcDbEntity
8
0
100
AcDbCircle
10
-107.8501628995791
20
-40.500000000000007
30
0
40
2.5000000000000089
210
0
220
-0
230
1
100
AcDbArc
50
90
51
139.39869757058977
0
ARC
5
136
100
AcDbEntity
8
0
100
AcDbCircle
10
-107.85016293940267
20
-64.5
30
0
40
2.5000000000000124
210
0
220
0
230
1
100
AcDbArc
50
220.60130393606923
51
269.99999999999972
0
CIRCLE
5
137
100
AcDbEntity
8
0
100
AcDbCircle
10
-112.00000166893004
20
-52.500000186264515
30
0
40
2.0000000000000009
210
0
220
0
230
1
0
LINE
5
138
100
AcDbEntity
8
0
100
AcDbLine
10
-107.85016293940268
20
-67
30
0
11
-0.49999999999998934
21
-67
31
0
0
ARC
5
139
100
AcDbEntity
8
0
100
AcDbCircle
10
-112.50000171363354
20
-45.924810458113996
30
0
40
2.4999999999999991
210
0
220
0
230
1
100
AcDbArc
50
139.39869757058989
51
180
0
ARC
5
140
100
AcDbEntity
8
0
100
AcDbCircle
10
-112.50000171363368
20
-59.075189877046768
30
0
40
2.4999999999998579
210
0
220
0
230
1
100
AcDbArc
50
180
51
220.60130393607096
0
LWPOLYLINE
5
141
100
AcDbEntity
8
0
100
AcDbPolyline
90
4
70
1
43
0.0
10
-120
20
70
10
10.000000149011612
20
70
10
10.000000149011612
20
-70.000001043081284
10
-120
20
-70.000001043081284
0
ENDSEC
0
SECTION
2
OBJECTS
0
DICTIONARY
5
C
100
AcDbDictionary
3
ACAD_GROUP
350
D
3
ACAD_MLINESTYLE
350
17
0
DICTIONARY
5
D
100
AcDbDictionary
0
DICTIONARY
5
1A
330
C
100
AcDbDictionary
0
DICTIONARY
5
17
100
AcDbDictionary
0
ENDSEC
0
EOF
